<svg width="24" height="24" viewBox="0 0 24 24" fill="currentColor" xmlns="http://www.w3.org/2000/svg">
    <path d="M11.0442 14.774C11.1534 14.8375 11.254 14.9147 11.3437 15.0036L14.985 18.6178C15.7787 19.4056 15.7835 20.6876 14.9957 21.4813C14.9905 21.4865 14.9853 21.4917 14.9801 21.4969L14.4437 22.0257C13.89 22.5715 13.0549 22.7145 12.3512 22.384L8.33303 20.497C7.40495 20.0611 7.00591 18.9555 7.44176 18.0274C7.46486 17.9782 7.49011 17.93 7.51744 17.883L9.0136 15.311C9.42604 14.602 10.3352 14.3615 11.0442 14.774ZM12.6292 1.10946C12.7978 1.2068 12.9378 1.3466 13.0355 1.51493L13.7453 2.73787C14.0801 3.31469 14.0797 4.02676 13.7444 4.60325L5.81078 18.2421C5.65297 18.5134 5.30512 18.6054 5.03382 18.4476C4.94933 18.3984 4.87894 18.3283 4.82946 18.244C4.50279 17.6874 4.25348 17.0889 4.08841 16.465L3.95925 15.9768C3.7172 15.0619 3.847 14.0885 4.3203 13.2689L11.1075 1.51697C11.4152 0.984234 12.0965 0.801787 12.6292 1.10946ZM15.7801 6.63222C16.0031 6.76191 16.1884 6.94743 16.3179 7.17052L17.8739 9.85138C18.2856 10.5608 18.0443 11.4697 17.3348 11.8815C17.1084 12.0129 16.8512 12.0821 16.5893 12.0821H13.1512C12.4335 12.0821 11.8516 11.5003 11.8516 10.7826C11.8516 10.553 11.9124 10.3276 12.0279 10.1291L13.7495 7.16927C14.162 6.46023 15.0711 6.21978 15.7801 6.63222Z"/>
    <path d="M20.5177 14.4072C20.8722 15.0179 20.7685 15.7911 20.2656 16.2868L18.5352 17.9924C17.8831 18.6352 16.8351 18.6334 16.1852 17.9884L13.1308 14.9567C12.7669 14.5956 12.7647 14.0078 13.1259 13.644C13.3002 13.4684 13.5373 13.3696 13.7847 13.3696H18.716C19.4585 13.3696 20.145 13.7649 20.5177 14.4072Z"/>
</svg>
