<svg width="32" height="32" viewBox="0 0 32 32" fill="none" xmlns="http://www.w3.org/2000/svg">
    <rect width="32" height="32" rx="16" fill="#1C202C"/>
    <path fill-rule="evenodd" clip-rule="evenodd"
          d="M15.5029 18.1783C15.612 18.2415 15.7126 18.3186 15.8019 18.4077L19.3693 21.9665C20.1437 22.739 20.153 23.9882 19.396 24.7721L19.3686 24.7998L18.8405 25.3231C18.2969 25.8617 17.4743 26.0028 16.7822 25.6761L12.8375 23.8142C11.9283 23.385 11.5391 22.3001 11.9682 21.3909C11.9899 21.3449 12.0135 21.2999 12.0389 21.256L13.5129 18.7093C13.9158 18.0131 14.8067 17.7754 15.5029 18.1783ZM17.0572 4.71206C17.2241 4.80795 17.3627 4.94623 17.4589 5.11291L18.1584 6.32418C18.4839 6.88805 18.4836 7.5829 18.1575 8.14644L10.3733 21.5962C10.2194 21.8622 9.87887 21.9531 9.61286 21.7991C9.52932 21.7507 9.45976 21.6814 9.41107 21.5981C9.09076 21.0495 8.84637 20.46 8.68467 19.8457L8.55777 19.3637C8.32033 18.4617 8.44777 17.5025 8.91248 16.6937L15.566 5.11491C15.8665 4.59187 16.5342 4.4115 17.0572 4.71206ZM20.1462 10.1552C20.367 10.283 20.5504 10.4665 20.6779 10.6874L22.21 13.3407C22.6123 14.0372 22.3736 14.9279 21.6771 15.3301C21.4557 15.458 21.2045 15.5253 20.9488 15.5253H17.5655C16.8617 15.5253 16.2912 14.9548 16.2912 14.2509C16.2912 14.0268 16.3503 13.8067 16.4626 13.6126L18.1563 10.6862C18.5591 9.99005 19.45 9.75234 20.1462 10.1552Z"
          fill="white"/>
    <path fill-rule="evenodd" clip-rule="evenodd"
          d="M24.7948 17.8167C25.1427 18.4193 25.0407 19.1806 24.5464 19.6703L22.8537 21.3473C22.2135 21.9814 21.1814 21.9797 20.5435 21.3432L17.5418 18.3489C17.1859 17.9938 17.1852 17.4175 17.5402 17.0616C17.711 16.8904 17.9428 16.7942 18.1846 16.7942H23.0235C23.7542 16.7942 24.4294 17.184 24.7948 17.8167Z"
          fill="#2161FF"/>
</svg>
