<svg width="220" height="220" viewBox="0 0 220 220" fill="none" xmlns="http://www.w3.org/2000/svg">
    <rect width="220" height="220" fill="#EEF2F6"/>,
    <path
            fill-rule="evenodd"
            clip-rule="evenodd"
            d="M0 0H14.2222C15.2041 0 16 0.795938 16 1.77778C16 2.75962 15.2041 3.55556 14.2222 3.55556H3.55556V14.2222C3.55556 15.2041 2.75962 16 1.77778 16C0.795938 16 0 15.2041 0 14.2222V0Z"
            fill="#ED6A65"
    />
    <path
            fill-rule="evenodd"
            clip-rule="evenodd"
            d="M220 220L205.778 220C204.796 220 204 219.204 204 218.222C204 217.24 204.796 216.444 205.778 216.444L216.444 216.444L216.444 205.778C216.444 204.796 217.24 204 218.222 204C219.204 204 220 204.796 220 205.778L220 220Z"
            fill="#ED6A65"
    />
    <path
            fill-rule="evenodd"
            clip-rule="evenodd"
            d="M220 0L220 14.2222C220 15.2041 219.204 16 218.222 16C217.24 16 216.444 15.2041 216.444 14.2222L216.444 3.55556L205.778 3.55555C204.796 3.55555 204 2.75962 204 1.77778C204 0.795937 204.796 -8.45843e-07 205.778 -7.9122e-07L220 0Z"
            fill="#ED6A65"
    />
    <path
            fill-rule="evenodd"
            clip-rule="evenodd"
            d="M0 220L-7.9122e-07 205.778C-8.45843e-07 204.796 0.795937 204 1.77778 204C2.75962 204 3.55555 204.796 3.55555 205.778L3.55556 216.444L14.2222 216.444C15.2041 216.444 16 217.24 16 218.222C16 219.204 15.2041 220 14.2222 220L0 220Z"
            fill="#ED6A65"
    />
    <path
            fill-rule="evenodd"
            clip-rule="evenodd"
            d="M116.329 98.5885C115.894 97.2818 114.671 96.4004 113.294 96.4004H106.706C105.329 96.4004 104.106 97.2818 103.671 98.5885L102.982 100.653C102.873 100.98 102.568 101.2 102.223 101.2H98.8C96.5909 101.2 94.8 102.991 94.8 105.2V119.6C94.8 121.81 96.5909 123.6 98.8 123.6H121.2C123.409 123.6 125.2 121.81 125.2 119.6V105.2C125.2 102.991 123.409 101.2 121.2 101.2H117.777C117.432 101.2 117.127 100.98 117.018 100.653L116.329 98.5885ZM110 118C113.093 118 115.6 115.493 115.6 112.4C115.6 109.308 113.093 106.8 110 106.8C106.907 106.8 104.4 109.308 104.4 112.4C104.4 115.493 106.907 118 110 118ZM110 119.6C113.976 119.6 117.2 116.377 117.2 112.4C117.2 108.424 113.976 105.2 110 105.2C106.024 105.2 102.8 108.424 102.8 112.4C102.8 116.377 106.024 119.6 110 119.6ZM118 103.6C117.558 103.6 117.2 103.959 117.2 104.4C117.2 104.842 117.558 105.2 118 105.2H120.4C120.842 105.2 121.2 104.842 121.2 104.4C121.2 103.959 120.842 103.6 120.4 103.6H118Z"
            fill="#1C202C"
    />
</svg>


