<svg width="1440" height="820" viewBox="0 0 1440 820" fill="none" xmlns="http://www.w3.org/2000/svg">
<g clip-path="url(#clip0_4725_544171)">
<rect width="1440" height="820" fill="#19273D"/>
<g clip-path="url(#clip1_4725_544171)">
<rect width="1440" height="833" fill="#19273D"/>
</g>
<rect y="-4" width="1440" height="950" fill="url(#paint0_linear_4725_544171)"/>
<path fill-rule="evenodd" clip-rule="evenodd" d="M51.1618 -138.756L50.491 -139V-138.286V215.699V216.199H50.991C80.8619 216.199 109.201 209.64 134.646 197.884V263.917L134.646 264.165C111.596 254.875 86.4146 249.761 60.0382 249.761H59.5382V250.261V851.645V852.359L60.2091 852.115L201.701 800.666L343.193 852.115L343.864 852.359V851.645V497.66V497.16H343.364C313.497 497.16 285.162 503.717 259.719 515.47V449.442L259.719 449.194C282.768 458.484 307.95 463.598 334.326 463.598H334.826V463.098V-138.277V-138.99L334.156 -138.746L192.663 -87.2976L51.1618 -138.756ZM60.5382 250.762C86.7448 250.827 111.759 255.965 134.65 265.246C135.191 348.2 186.311 419.144 258.718 448.787C258.719 449.005 258.719 449.224 258.719 449.442V515.936C190.754 547.79 143.684 616.817 143.684 696.841V779.22V779.57L144.013 779.69L200.238 800.134L60.5382 850.931V250.762ZM258.711 447.703C186.992 418.165 136.358 347.868 135.653 265.656C207.373 295.194 258.007 365.491 258.711 447.703ZM135.647 264.572C208.054 294.215 259.174 365.159 259.715 448.113C282.606 457.394 307.62 462.532 333.826 462.597V-137.563L194.126 -86.7655L250.343 -66.3216L250.672 -66.2019V-65.8517V16.518C250.672 96.5382 203.606 165.563 135.646 197.419V263.917C135.646 264.135 135.646 264.354 135.647 264.572ZM144.684 696.841C144.684 617.385 191.323 548.824 258.719 517.041V778.87L201.701 799.602L144.684 778.87V696.841ZM342.864 850.931L203.164 800.134L259.39 779.69L259.719 779.57V779.22V516.573C285 504.823 313.166 498.234 342.864 498.161V850.931ZM191.2 -86.7656L51.491 -137.572V215.198C81.1925 215.125 109.362 208.535 134.646 196.782V-65.8515V-66.2017L134.975 -66.3214L191.2 -86.7656ZM135.646 196.314V-65.5013L192.663 -86.2335L249.672 -65.5015V16.518C249.672 95.9709 203.037 164.529 135.646 196.314ZM370.249 -139L370.92 -138.756L508.677 -88.6589L646.428 -138.747L647.098 -138.991V-138.277V463.097V463.597H646.598C623.05 463.597 600.454 459.521 579.477 452.036V512.201C602.949 502.508 628.673 497.16 655.646 497.16H656.146V497.66V851.645V852.359L655.475 852.115L517.721 802.026L379.967 852.115L379.297 852.359V851.645V250.261V249.761H379.797C403.345 249.761 425.941 253.837 446.918 261.322V201.158C423.446 210.851 397.722 216.199 370.749 216.199H370.249V215.699V-138.286V-139ZM446.918 262.385C426.1 254.914 403.672 250.82 380.297 250.762V850.931L516.257 801.494L456.294 779.69L455.965 779.57V779.22V696.841C455.965 613.915 506.512 542.797 578.477 512.617V451.676C501.737 423.829 446.918 350.276 446.918 263.916V262.385ZM578.477 450.612C502.3 422.81 447.918 349.716 447.918 263.916V262.747C524.095 290.548 578.477 363.643 578.477 449.442V450.612ZM579.477 450.974V449.442C579.477 363.082 524.658 289.529 447.918 261.682V200.742C519.883 170.562 570.43 99.4444 570.43 16.518V-65.8517V-66.2019L570.101 -66.3216L510.14 -88.1269L646.098 -137.563V462.596C622.722 462.539 600.295 458.445 579.477 450.974ZM578.477 513.702C507.078 543.823 456.965 614.478 456.965 696.841V778.87L517.721 800.962L578.477 778.87V513.702ZM519.184 801.494L655.146 850.931V498.161C628.344 498.227 602.789 503.6 579.477 513.284V779.22V779.57L579.148 779.69L519.184 801.494ZM371.249 -137.572L507.214 -88.1269L447.247 -66.3219L446.918 -66.2022V-65.852V200.075C423.606 209.759 398.051 215.132 371.249 215.198V-137.572ZM447.918 -65.5017V199.657C519.317 169.536 569.43 98.8806 569.43 16.518V-65.5015L508.677 -87.5949L447.918 -65.5017ZM682.521 -139L683.192 -138.756L827.536 -86.2636L971.872 -138.746L972.543 -138.99V-138.277V463.098V463.598H972.043C943.474 463.598 916.307 457.598 891.732 446.791C891.738 447.275 891.743 447.759 891.746 448.243C891.748 448.643 891.749 449.042 891.749 449.442V514.373C916.564 503.31 944.053 497.16 972.978 497.16H973.478V497.66V851.645V852.359L972.807 852.115L832.522 801.106L692.239 852.115L691.568 852.359V851.645V250.261V249.761H692.068C720.637 249.761 747.805 255.761 772.379 266.568C772.368 265.686 772.362 264.802 772.362 263.917V195.147C745.481 208.618 715.137 216.199 683.021 216.199H682.521V215.699V-138.286V-139ZM773.362 194.643V263.917C773.362 264.951 773.37 265.984 773.386 267.014C842.062 297.672 890.245 365.971 891.714 445.69C916.133 456.496 943.138 462.527 971.543 462.597V-137.563L828.999 -85.7315L882.373 -66.3214L882.702 -66.2017V-65.8515V16.5181C882.702 94.2869 838.247 161.67 773.362 194.643ZM827.536 -85.1996L881.702 -65.5013V16.5181C881.702 93.7165 837.676 160.63 773.362 193.52V-65.5013L827.536 -85.1996ZM826.073 -85.7316L772.691 -66.3214L772.362 -66.2017V-65.8515V194.028C745.644 207.501 715.469 215.12 683.521 215.198V-137.572L826.073 -85.7316ZM890.705 445.24C889.067 366.287 841.376 298.655 773.406 268.119C775.044 347.072 822.735 414.704 890.705 445.24ZM772.397 267.669C747.978 256.863 720.974 250.832 692.568 250.762V850.931L831.059 800.574L773.626 779.69L773.297 779.57V779.22V696.841C773.297 615.872 821.486 546.161 890.749 514.823V449.442C890.749 448.408 890.741 447.375 890.725 446.345C822.049 415.687 773.866 347.388 772.397 267.669ZM890.749 515.921C822.053 547.192 774.297 616.438 774.297 696.841V778.87L832.523 800.042L890.749 778.87V515.921ZM833.986 800.574L972.478 850.931V498.161C943.723 498.232 916.404 504.411 891.749 515.469V779.22V779.57L891.42 779.69L833.986 800.574ZM23.6153 497.16C-86.6678 497.16 -176.065 586.558 -176.065 696.841V779.22V779.57L-175.736 779.69L23.4444 852.115L24.1153 852.359V851.645V497.66V497.16H23.6153ZM-175.065 696.841C-175.065 587.277 -86.3856 498.431 23.1153 498.161V850.931L-175.065 778.87V696.841ZM23.1807 -138.99V-138.277V463.098V463.598H22.6807C-87.6023 463.598 -177 374.2 -177 263.917V-65.8515V-66.2017L-176.671 -66.3214L22.5099 -138.746L23.1807 -138.99ZM-176 -65.5013V263.917C-176 373.481 -87.3201 462.327 22.1807 462.597V-137.563L-176 -65.5013ZM1000.52 -138.756L999.853 -139V-138.286V215.699V216.199H1000.35C1030.22 216.199 1058.56 209.64 1084.01 197.884V263.917L1084.01 264.165C1060.96 254.875 1035.78 249.761 1009.4 249.761H1008.9V250.261V851.645V852.359L1009.57 852.115L1151.06 800.666L1292.56 852.115L1293.23 852.359V851.645V497.66V497.16H1292.73C1262.86 497.16 1234.52 503.717 1209.08 515.47V449.442L1209.08 449.194C1232.13 458.484 1257.31 463.598 1283.69 463.598H1284.19V463.098V-138.277V-138.99L1283.52 -138.746L1142.02 -87.2976L1000.52 -138.756ZM1009.9 250.762C1036.11 250.827 1061.12 255.965 1084.01 265.246C1084.55 348.2 1135.67 419.144 1208.08 448.787C1208.08 449.005 1208.08 449.224 1208.08 449.442V515.936C1140.12 547.79 1093.05 616.817 1093.05 696.841V779.22V779.57L1093.38 779.69L1149.6 800.134L1009.9 850.931V250.762ZM1208.07 447.703C1136.35 418.165 1085.72 347.868 1085.02 265.656C1156.73 295.194 1207.37 365.491 1208.07 447.703ZM1085.01 264.572C1157.42 294.215 1208.54 365.159 1209.08 448.113C1231.97 457.394 1256.98 462.532 1283.19 462.597V-137.563L1143.49 -86.7655L1199.7 -66.3216L1200.03 -66.2019V-65.8517V16.518C1200.03 96.5382 1152.97 165.563 1085.01 197.419V263.917L1085.01 264.194L1085.01 264.572ZM1094.05 696.841C1094.05 617.385 1140.68 548.824 1208.08 517.041V778.87L1151.06 799.602L1094.05 778.87V696.841ZM1292.23 850.931L1152.53 800.134L1208.75 779.69L1209.08 779.57V779.22V516.573C1234.36 504.823 1262.53 498.234 1292.23 498.161V850.931ZM1140.56 -86.7656L1000.85 -137.572V215.198C1030.55 215.125 1058.72 208.535 1084.01 196.782V-65.8515V-66.2017L1084.34 -66.3214L1140.56 -86.7656ZM1085.01 196.314V-65.5013L1142.02 -86.2335L1199.03 -65.5015V16.518C1199.03 95.9709 1152.4 164.529 1085.01 196.314ZM1319.61 -139L1320.28 -138.756L1458.04 -88.6589L1595.79 -138.747L1596.46 -138.991V-138.277V463.097V463.597H1595.96C1572.41 463.597 1549.82 459.521 1528.84 452.036V512.201C1552.31 502.508 1578.03 497.16 1605.01 497.16H1605.51V497.66V851.645V852.359L1604.84 852.115L1467.08 802.026L1329.33 852.115L1328.66 852.359V851.645V250.261V249.761H1329.16C1352.71 249.761 1375.3 253.837 1396.28 261.322V201.158C1372.81 210.851 1347.08 216.199 1320.11 216.199H1319.61V215.699V-138.286V-139ZM1396.28 262.385C1375.46 254.914 1353.03 250.82 1329.66 250.762V850.931L1465.62 801.494L1405.66 779.69L1405.33 779.57V779.22V696.841C1405.33 613.915 1455.87 542.797 1527.84 512.617V451.676C1451.1 423.829 1396.28 350.276 1396.28 263.916V262.385ZM1527.84 450.612C1451.66 422.81 1397.28 349.716 1397.28 263.916V262.747C1473.46 290.548 1527.84 363.643 1527.84 449.442V450.612ZM1528.84 450.974V449.442C1528.84 363.082 1474.02 289.529 1397.28 261.682V200.742C1469.25 170.562 1519.79 99.4445 1519.79 16.518V-65.8517V-66.2019L1519.46 -66.3216L1459.5 -88.1269L1595.46 -137.563V462.596C1572.08 462.539 1549.66 458.445 1528.84 450.974ZM1527.84 513.702C1456.44 543.823 1406.33 614.478 1406.33 696.841V778.87L1467.08 800.962L1527.84 778.87V513.702ZM1468.55 801.494L1604.51 850.931V498.161C1577.71 498.227 1552.15 503.6 1528.84 513.284V779.22V779.57L1528.51 779.69L1468.55 801.494ZM1320.61 -137.572L1456.58 -88.1269L1396.61 -66.3219L1396.28 -66.2022V-65.852V200.075C1372.97 209.759 1347.41 215.132 1320.61 215.198V-137.572ZM1397.28 -65.5017V199.657C1468.68 169.536 1518.79 98.8806 1518.79 16.518V-65.5015L1458.04 -87.5949L1397.28 -65.5017ZM1631.88 -139L1632.55 -138.756L1831.74 -66.3214L1832.06 -66.2017V-65.8515V16.5181C1832.06 126.801 1742.67 216.199 1632.38 216.199H1631.88V215.699V-138.286V-139ZM1632.88 -137.572V215.198C1742.38 214.928 1831.06 126.082 1831.06 16.5181V-65.5013L1632.88 -137.572ZM1641.43 249.761H1640.93V250.261V851.645V852.359L1641.6 852.115L1840.78 779.69L1841.11 779.57V779.22V449.442C1841.11 339.159 1751.71 249.761 1641.43 249.761ZM1641.93 850.931V250.762C1751.43 251.032 1840.11 339.878 1840.11 449.442V778.87L1641.93 850.931ZM50.491 883.982L51.1618 884.226L192.663 935.685L334.156 884.236L334.826 883.992V884.706V1486.08V1486.58H334.326C307.95 1486.58 282.768 1481.47 259.719 1472.18L259.719 1472.42V1538.45C285.162 1526.7 313.497 1520.14 343.364 1520.14H343.864V1520.64V1874.63V1875.34L343.193 1875.1L201.701 1823.65L60.2091 1875.1L59.5382 1875.34V1874.63V1273.24V1272.74H60.0382C86.4146 1272.74 111.596 1277.86 134.646 1287.15L134.646 1286.9V1220.87C109.201 1232.62 80.8619 1239.18 50.991 1239.18H50.491V1238.68V884.696V883.982ZM134.65 1288.23C111.759 1278.95 86.7448 1273.81 60.5382 1273.74V1873.91L200.238 1823.12L144.013 1802.67L143.684 1802.55V1802.2V1719.82C143.684 1639.8 190.754 1570.77 258.719 1538.92V1472.42C258.719 1472.21 258.719 1471.99 258.718 1471.77C186.311 1442.13 135.191 1371.18 134.65 1288.23ZM258.711 1470.69C186.992 1441.15 136.358 1370.85 135.653 1288.64C207.373 1318.18 258.007 1388.47 258.711 1470.69ZM259.715 1471.1C259.174 1388.14 208.054 1317.2 135.647 1287.55L135.646 1287.17L135.646 1286.9V1220.4C203.606 1188.54 250.672 1119.52 250.672 1039.5V957.131V956.78L250.343 956.661L194.126 936.217L333.826 885.42V1485.58C307.62 1485.51 282.606 1480.38 259.715 1471.1ZM258.719 1540.02C191.323 1571.81 144.684 1640.37 144.684 1719.82V1801.85L201.701 1822.58L258.719 1801.85V1540.02ZM203.164 1823.12L342.864 1873.91V1521.14C313.166 1521.22 285 1527.8 259.719 1539.55V1802.2V1802.55L259.39 1802.67L203.164 1823.12ZM51.491 885.41L191.2 936.217L134.975 956.661L134.646 956.781V957.131V1219.76C109.362 1231.52 81.1925 1238.11 51.491 1238.18V885.41ZM135.646 957.481V1219.3C203.037 1187.51 249.672 1118.95 249.672 1039.5V957.481L192.663 936.749L135.646 957.481ZM370.92 884.226L370.249 883.982V884.696V1238.68V1239.18H370.749C397.722 1239.18 423.446 1233.83 446.918 1224.14V1284.3C425.941 1276.82 403.345 1272.74 379.797 1272.74H379.297V1273.24V1874.63V1875.34L379.967 1875.1L517.721 1825.01L655.475 1875.1L656.146 1875.34V1874.63V1520.64V1520.14H655.646C628.673 1520.14 602.949 1525.49 579.477 1535.18V1475.02C600.454 1482.5 623.05 1486.58 646.598 1486.58H647.098V1486.08V884.706V883.992L646.428 884.236L508.678 934.323L370.92 884.226ZM380.297 1273.74C403.672 1273.8 426.1 1277.9 446.918 1285.37V1286.9C446.918 1373.26 501.737 1446.81 578.477 1474.66V1535.6C506.512 1565.78 455.965 1636.9 455.965 1719.82V1802.2V1802.55L456.294 1802.67L516.257 1824.48L380.297 1873.91V1273.74ZM447.918 1286.9C447.918 1372.7 502.3 1445.79 578.477 1473.59V1472.42C578.477 1386.62 524.095 1313.53 447.918 1285.73V1286.9ZM579.477 1472.42V1473.96C600.295 1481.43 622.722 1485.52 646.098 1485.58V885.419L510.141 934.856L570.101 956.661L570.43 956.78V957.131V1039.5C570.43 1122.43 519.883 1193.54 447.918 1223.72V1284.66C524.658 1312.51 579.477 1386.06 579.477 1472.42ZM456.965 1719.82C456.965 1637.46 507.078 1566.81 578.477 1536.68V1801.85L517.721 1823.94L456.965 1801.85V1719.82ZM655.146 1873.91L519.184 1824.48L579.148 1802.67L579.477 1802.55V1802.2V1536.27C602.789 1526.58 628.344 1521.21 655.146 1521.14V1873.91ZM507.215 934.855L371.249 885.41V1238.18C398.051 1238.11 423.606 1232.74 446.918 1223.06V957.131V956.78L447.247 956.661L507.215 934.855ZM447.918 1222.64V957.481L508.678 935.388L569.43 957.481V1039.5C569.43 1121.86 519.317 1192.52 447.918 1222.64ZM683.192 884.227L682.521 883.983V884.696V1238.68V1239.18H683.021C715.137 1239.18 745.481 1231.6 772.362 1218.13V1286.9C772.362 1287.78 772.368 1288.67 772.379 1289.55C747.805 1278.74 720.637 1272.74 692.068 1272.74H691.568V1273.24V1874.63V1875.34L692.239 1875.1L832.522 1824.09L972.807 1875.1L973.478 1875.34V1874.63V1520.64V1520.14H972.978C944.053 1520.14 916.564 1526.29 891.749 1537.36V1472.42C891.749 1471.54 891.743 1470.66 891.732 1469.77C916.307 1480.58 943.474 1486.58 972.043 1486.58H972.543V1486.08V884.706V883.992L971.872 884.236L827.535 936.719L683.192 884.227ZM826.072 937.251L683.521 885.41V1238.18C715.469 1238.1 745.644 1230.48 772.362 1217.01V957.131V956.781L772.691 956.661L826.072 937.251ZM773.362 1216.5V957.481L827.536 937.783L881.702 957.481V1039.5C881.702 1116.7 837.676 1183.61 773.362 1216.5ZM773.362 1217.62C838.247 1184.65 882.702 1117.27 882.702 1039.5V957.131V956.781L882.373 956.661L828.999 937.251L971.543 885.42V1485.58C943.138 1485.51 916.133 1479.48 891.714 1468.67C890.245 1388.95 842.062 1320.65 773.386 1290C773.37 1288.97 773.362 1287.93 773.362 1286.9V1217.62ZM772.397 1290.65C747.978 1279.84 720.974 1273.81 692.568 1273.74V1873.91L831.059 1823.56L773.626 1802.67L773.297 1802.55V1802.2V1719.82C773.297 1638.85 821.486 1569.14 890.749 1537.8V1472.42C890.749 1471.39 890.741 1470.36 890.725 1469.33C822.049 1438.67 773.866 1370.37 772.397 1290.65ZM890.705 1468.22C822.735 1437.69 775.044 1370.05 773.406 1291.1C841.376 1321.64 889.067 1389.27 890.705 1468.22ZM890.749 1538.9C822.053 1570.17 774.297 1639.42 774.297 1719.82V1801.85L832.522 1823.02L890.749 1801.85V1538.9ZM833.986 1823.56L972.478 1873.91V1521.14C943.723 1521.21 916.404 1527.39 891.749 1538.45V1802.2V1802.55L891.42 1802.67L833.986 1823.56ZM-176.065 1719.82C-176.065 1609.54 -86.6678 1520.14 23.6153 1520.14H24.1153V1520.64V1874.63V1875.34L23.4444 1875.1L-175.736 1802.67L-176.065 1802.55V1802.2V1719.82ZM23.1153 1521.14C-86.3856 1521.41 -175.065 1610.26 -175.065 1719.82V1801.85L23.1153 1873.91V1521.14ZM23.1807 884.706V883.992L22.5099 884.236L-176.671 956.661L-177 956.781V957.131V1286.9C-177 1397.18 -87.6023 1486.58 22.6807 1486.58H23.1807V1486.08V884.706ZM-176 1286.9V957.481L22.1807 885.42V1485.58C-87.3201 1485.31 -176 1396.46 -176 1286.9ZM1000.52 884.226L999.853 883.982V884.696V1238.68V1239.18H1000.35C1030.22 1239.18 1058.56 1232.62 1084.01 1220.87V1286.9L1084.01 1287.15C1060.96 1277.86 1035.78 1272.74 1009.4 1272.74H1008.9V1273.24V1874.63V1875.34L1009.57 1875.1L1151.06 1823.65L1292.56 1875.1L1293.23 1875.34V1874.63V1520.64V1520.14H1292.73C1262.86 1520.14 1234.52 1526.7 1209.08 1538.45V1472.42L1209.08 1472.18C1232.13 1481.47 1257.31 1486.58 1283.69 1486.58H1284.19V1486.08V884.706V883.992L1283.52 884.236L1142.02 935.685L1000.52 884.226ZM1009.9 1273.74C1036.11 1273.81 1061.12 1278.95 1084.01 1288.23C1084.55 1371.18 1135.67 1442.13 1208.08 1471.77C1208.08 1471.99 1208.08 1472.21 1208.08 1472.42V1538.92C1140.12 1570.77 1093.05 1639.8 1093.05 1719.82V1802.2V1802.55L1093.38 1802.67L1149.6 1823.12L1009.9 1873.91V1273.74ZM1208.07 1470.69C1136.35 1441.15 1085.72 1370.85 1085.02 1288.64C1156.73 1318.18 1207.37 1388.47 1208.07 1470.69ZM1085.01 1287.55C1157.42 1317.2 1208.54 1388.14 1209.08 1471.1C1231.97 1480.38 1256.98 1485.51 1283.19 1485.58V885.42L1143.49 936.217L1199.7 956.661L1200.03 956.78V957.131V1039.5C1200.03 1119.52 1152.97 1188.54 1085.01 1220.4V1286.9L1085.01 1287.21L1085.01 1287.55ZM1094.05 1719.82C1094.05 1640.37 1140.68 1571.81 1208.08 1540.02V1801.85L1151.06 1822.58L1094.05 1801.85V1719.82ZM1292.23 1873.91L1152.53 1823.12L1208.75 1802.67L1209.08 1802.55V1802.2V1539.55C1234.36 1527.8 1262.53 1521.22 1292.23 1521.14V1873.91ZM1140.56 936.217L1000.85 885.41V1238.18C1030.55 1238.11 1058.72 1231.52 1084.01 1219.76V957.131V956.781L1084.34 956.661L1140.56 936.217ZM1085.01 1219.3V957.481L1142.02 936.749L1199.03 957.481V1039.5C1199.03 1118.95 1152.4 1187.51 1085.01 1219.3ZM1319.61 883.982L1320.28 884.226L1458.04 934.323L1595.79 884.236L1596.46 883.992V884.706V1486.08V1486.58H1595.96C1572.41 1486.58 1549.82 1482.5 1528.84 1475.02V1535.18C1552.31 1525.49 1578.03 1520.14 1605.01 1520.14H1605.51V1520.64V1874.63V1875.34L1604.84 1875.1L1467.08 1825.01L1329.33 1875.1L1328.66 1875.34V1874.63V1273.24V1272.74H1329.16C1352.71 1272.74 1375.3 1276.82 1396.28 1284.3V1224.14C1372.81 1233.83 1347.08 1239.18 1320.11 1239.18H1319.61V1238.68V884.696V883.982ZM1396.28 1285.37C1375.46 1277.9 1353.03 1273.8 1329.66 1273.74V1873.91L1465.62 1824.48L1405.66 1802.67L1405.33 1802.55V1802.2V1719.82C1405.33 1636.9 1455.87 1565.78 1527.84 1535.6V1474.66C1451.1 1446.81 1396.28 1373.26 1396.28 1286.9V1285.37ZM1527.84 1473.59C1451.66 1445.79 1397.28 1372.7 1397.28 1286.9V1285.73C1473.46 1313.53 1527.84 1386.62 1527.84 1472.42V1473.59ZM1528.84 1473.96V1472.42C1528.84 1386.06 1474.02 1312.51 1397.28 1284.66V1223.72C1469.25 1193.54 1519.79 1122.43 1519.79 1039.5V957.131V956.78L1519.46 956.661L1459.5 934.856L1595.46 885.419V1485.58C1572.08 1485.52 1549.66 1481.43 1528.84 1473.96ZM1527.84 1536.68C1456.44 1566.81 1406.33 1637.46 1406.33 1719.82V1801.85L1467.08 1823.94L1527.84 1801.85V1536.68ZM1468.55 1824.48L1604.51 1873.91V1521.14C1577.71 1521.21 1552.15 1526.58 1528.84 1536.27V1802.2V1802.55L1528.51 1802.67L1468.55 1824.48ZM1320.61 885.41L1456.58 934.855L1396.61 956.661L1396.28 956.78V957.131V1223.06C1372.97 1232.74 1347.41 1238.11 1320.61 1238.18V885.41ZM1397.28 957.481V1222.64C1468.68 1192.52 1518.79 1121.86 1518.79 1039.5V957.481L1458.04 935.388L1397.28 957.481ZM1631.88 883.983L1632.55 884.227L1831.74 956.661L1832.06 956.781V957.131V1039.5C1832.06 1149.78 1742.67 1239.18 1632.38 1239.18H1631.88V1238.68V884.696V883.983ZM1632.88 885.41V1238.18C1742.38 1237.91 1831.06 1149.06 1831.06 1039.5V957.481L1632.88 885.41ZM1641.43 1272.74H1640.93V1273.24V1874.63V1875.34L1641.6 1875.1L1840.78 1802.67L1841.11 1802.55V1802.2V1472.42C1841.11 1362.14 1751.71 1272.74 1641.43 1272.74ZM1641.93 1873.91V1273.74C1751.43 1274.01 1840.11 1362.86 1840.11 1472.42V1801.85L1641.93 1873.91Z" fill="#FF5F5F" fill-opacity="0.15"/>
</g>
<defs>
<linearGradient id="paint0_linear_4725_544171" x1="1066.41" y1="587" x2="1227.58" y2="54.4216" gradientUnits="userSpaceOnUse">
<stop stop-color="#0E1A2A"/>
<stop offset="1" stop-opacity="0"/>
</linearGradient>
<clipPath id="clip0_4725_544171">
<rect width="1440" height="820" fill="white"/>
</clipPath>
<clipPath id="clip1_4725_544171">
<rect width="1440" height="833" fill="white"/>
</clipPath>
</defs>
</svg>