<svg width="24" height="24" viewBox="0 0 24 24" fill="none" xmlns="http://www.w3.org/2000/svg">
    <path fill-rule="evenodd" clip-rule="evenodd"
        d="M10.3172 12.2759H1.43067V10.2759C1.43067 5.53861 5.57809 2 10.3029 2H22.3311L12.6646 10.8276H21.4307V12.8276C21.4307 17.8115 17.5377 22 12.5584 22H1L10.3172 12.2759ZM12.5584 12.8276V20C12.8981 20 13.232 19.9743 13.5584 19.9246C16.2404 19.5164 18.4201 17.4911 19.1599 14.8276C19.3362 14.1928 19.4307 13.5217 19.4307 12.8276H12.5584ZM10.3029 10.2759V4C9.96327 4 9.62937 4.02251 9.30291 4.06598C6.7177 4.41026 4.5991 6.06924 3.7871 8.27586C3.55594 8.90405 3.43067 9.57661 3.43067 10.2759H10.3029Z"
        fill="currentColor" />
</svg>