<svg width="24" height="24" viewBox="0 0 24 24" fill="none" xmlns="http://www.w3.org/2000/svg">
    <path fill-rule="evenodd" clip-rule="evenodd"
        d="M10.8722 10.2759H4C4 9.57661 4.12527 8.90405 4.35644 8.27586C5.16844 6.06924 7.28704 4.41026 9.87225 4.06598C10.1987 4.02251 10.5326 4 10.8722 4H17.7445L10.8722 10.2759ZM6.25551 20H13.1278C13.4674 20 13.8013 19.9743 14.1278 19.9246C16.8097 19.5164 18.9895 17.4911 19.7292 14.8276C19.9055 14.1928 20 13.5217 20 12.8276H13.1278L6.25551 20ZM10.8865 12.2759H2V10.2759C2 5.53861 6.14743 2 10.8722 2H22.9004L13.234 10.8276H22V12.8276C22 17.8115 18.1071 22 13.1278 22H1.56934L10.8865 12.2759Z"
        fill="currentColor" />
</svg>