<svg width="16" height="16" viewBox="0 0 16 16" fill="none" xmlns="http://www.w3.org/2000/svg">
<path fill-rule="evenodd" clip-rule="evenodd" d="M11.0909 0.390644L14.4579 3.7577L11.0909 7.12475L10.1481 6.18194L12.5723 3.7577L10.1481 1.33345L11.0909 0.390644Z" fill="currentColor"/>
<path fill-rule="evenodd" clip-rule="evenodd" d="M5.36701 9.81832L2.94277 12.2426L5.36701 14.6668L4.4242 15.6096L1.05715 12.2426L4.4242 8.87551L5.36701 9.81832Z" fill="currentColor"/>
<path fill-rule="evenodd" clip-rule="evenodd" d="M5.03024 4.42436C4.5641 4.42436 4.11705 4.60953 3.78744 4.93914C3.45783 5.26875 3.27266 5.71579 3.27266 6.18193V8.06072H1.93933V6.18193C1.93933 5.36217 2.26498 4.57599 2.84463 3.99633C3.42429 3.41667 4.21048 3.09102 5.03024 3.09102H13.4717V4.42436H5.03024ZM14.1818 7.93951V12.2425L13.5151 12.2425L13.5151 12.9092H2.64937V11.5759H12.8484V7.93951H14.1818ZM13.5151 12.2425L13.5151 12.9092H14.1818V12.2425L13.5151 12.2425Z" fill="currentColor"/>
<path fill-rule="evenodd" clip-rule="evenodd" d="M11.0909 0.213867L14.6347 3.7577L11.0909 7.30152L9.97127 6.18194L11.6039 4.54936H5.03024C4.59725 4.54936 4.182 4.72136 3.87583 5.02753C3.56966 5.33369 3.39766 5.74894 3.39766 6.18193V8.18572H1.81433V6.18193C1.81433 5.32902 2.15315 4.51104 2.75625 3.90794C3.35935 3.30484 4.17733 2.96602 5.03024 2.96602H11.6038L9.97127 1.33345L11.0909 0.213867ZM11.8538 3.21602H5.03024C4.24363 3.21602 3.48924 3.5285 2.93302 4.08472C2.37681 4.64093 2.06433 5.39532 2.06433 6.18193V7.93572H3.14766V6.18193C3.14766 5.68264 3.346 5.2038 3.69906 4.85075C4.05211 4.4977 4.53095 4.29936 5.03024 4.29936H11.8539L12.3955 3.7577L11.8538 3.21602ZM12.2074 4.29936L12.7491 3.7577L12.2074 3.21602H13.3467V4.29936H12.2074ZM11.9574 4.54936L10.3248 6.18194L11.0909 6.94797L13.4895 4.54936H11.9574ZM13.5967 4.44212L14.2811 3.7577L13.5967 3.07327V4.44212ZM13.4895 2.96602H11.9574L10.3248 1.33345L11.0909 0.567421L13.4895 2.96602ZM12.7234 7.81451H14.3068V13.0342H3.91119L5.54379 14.6668L4.4242 15.7864L0.880371 12.2426L4.4242 8.69873L5.54379 9.81832L3.91123 11.4509H12.7234V7.81451ZM3.55768 11.4509L5.19023 9.81832L4.4242 9.05228L1.23392 12.2426L4.4242 15.4328L5.19023 14.6668L3.55763 13.0342H2.52437V11.4509H3.55768ZM3.66119 12.7842H13.3901L13.3901 12.1175L14.0568 12.1175V8.06451H12.9734V11.7009H3.66123L3.11954 12.2426L3.66119 12.7842ZM14.0568 12.3675L13.6401 12.3675L13.6401 12.7842H14.0568V12.3675ZM3.30763 12.7842H2.77437V12.2509L3.30763 12.7842ZM2.77437 12.2342L3.30768 11.7009H2.77437V12.2342Z" fill="currentColor"/>
</svg>
