<svg width="24" height="24" viewBox="0 0 24 24" fill="none" xmlns="http://www.w3.org/2000/svg">
    <path fill-rule="evenodd" clip-rule="evenodd"
        d="M7.62109 3H14.1511L18.7722 7.62109V14.1511L17.2604 15.6629C17.2175 15.7307 17.1698 15.7977 17.1169 15.8638L21 19.7469L19.7469 21L15.8638 17.1169C15.8064 17.1628 15.7451 17.2048 15.6802 17.2431L14.1511 18.7722H7.62109L3 14.1511V7.62109L7.62109 3ZM8.28173 4.59494L4.59494 8.28173V13.4905L8.28173 17.1773H13.4905L17.1773 13.4905V8.28173L13.4905 4.59494H8.28173Z"
        fill="currentColor" />
    <path fill-rule="evenodd" clip-rule="evenodd"
        d="M7.51753 2.75H14.2547L19.0222 7.51753V14.2547L17.4563 15.8206C17.4525 15.8265 17.4486 15.8323 17.4448 15.8381L21.3536 19.7469L19.7469 21.3536L15.8351 17.4418L14.2547 19.0222H7.51753L2.75 14.2547V7.51753L7.51753 2.75ZM7.72464 3.25L3.25 7.72464V14.0476L7.72464 18.5222H14.0476L15.5258 17.044L15.5531 17.0279C15.6085 16.9951 15.6601 16.9597 15.7077 16.9217L15.8824 16.7819L19.7469 20.6464L20.6464 19.7469L16.7819 15.8824L16.9217 15.7077C16.9689 15.6486 17.0112 15.5892 17.0491 15.5293L17.0639 15.5058L18.5222 14.0476V7.72464L14.0476 3.25H7.72464ZM8.17818 4.34494H13.594L17.4273 8.17818V13.594L13.594 17.4273H8.17818L4.34494 13.594V8.17818L8.17818 4.34494ZM8.38529 4.84494L4.84494 8.38529V13.3869L8.38529 16.9273H13.3869L16.9273 13.3869V8.38529L13.3869 4.84494H8.38529Z"
        fill="currentColor" />
</svg>