<svg width="48" height="48" viewBox="0 0 48 48" fill="none" xmlns="http://www.w3.org/2000/svg">
<path fill-rule="evenodd" clip-rule="evenodd" d="M19.0098 20H0V48H48V20H30.3039L24.6569 25.6471L19.0098 20Z" fill="#4EB1AA"/>
<path fill-rule="evenodd" clip-rule="evenodd" d="M39 11.25L24.5 3L10 11.25V27.75L24.5 36L39 27.75V11.25ZM24.6569 14.3331L19 19.99L24.6569 25.6469L30.3137 19.99L24.6569 14.3331Z" fill="#DAB5FF"/>
<path fill-rule="evenodd" clip-rule="evenodd" d="M10 20H19.01L24.6569 25.6469L30.3037 20H39V27.75L24.5 36L10 27.75V20ZM24.5 36H10V40H39V36H24.5ZM10 48V44H39V48H10Z" fill="#092F63"/>
</svg>
